<svg width="36" height="37" viewBox="0 0 36 37" fill="none" xmlns="http://www.w3.org/2000/svg">
<path id="Vector" d="M34.02 0.5H1.98C1.45487 0.5 0.951251 0.708607 0.579929 1.07993C0.208607 1.45125 0 1.95487 0 2.48V34.52C0 35.0451 0.208607 35.5488 0.579929 35.9201C0.951251 36.2914 1.45487 36.5 1.98 36.5H19.224V22.55H14.544V17.15H19.224V13.1C19.1271 12.1492 19.2393 11.1886 19.5529 10.2858C19.8665 9.38291 20.3738 8.55958 21.0392 7.87354C21.7047 7.1875 22.5122 6.65535 23.4051 6.31443C24.298 5.9735 25.2547 5.83205 26.208 5.9C27.609 5.89033 29.0094 5.96245 30.402 6.116V10.976H27.54C25.272 10.976 24.84 12.056 24.84 13.622V17.096H30.24L29.538 22.496H24.84V36.5H34.02C34.28 36.5 34.5375 36.4488 34.7777 36.3493C35.0179 36.2498 35.2362 36.1039 35.4201 35.9201C35.6039 35.7362 35.7498 35.5179 35.8493 35.2777C35.9488 35.0375 36 34.78 36 34.52V2.48C36 2.21998 35.9488 1.96251 35.8493 1.72229C35.7498 1.48206 35.6039 1.26379 35.4201 1.07993C35.2362 0.896069 35.0179 0.750223 34.7777 0.650719C34.5375 0.551214 34.28 0.5 34.02 0.5Z" fill="white"/>
</svg>
