<svg width="38" height="38" viewBox="0 0 38 38" fill="none" xmlns="http://www.w3.org/2000/svg">
<path id="Vector" d="M20.9532 0.5C23.0906 0.50555 24.1755 0.51665 25.1121 0.542549L25.4807 0.555499C25.9063 0.570298 26.3262 0.588798 26.8334 0.610997C28.8549 0.703495 30.2343 1.01429 31.4445 1.47123C32.6984 1.94112 33.7548 2.5775 34.8111 3.60422C35.7776 4.52871 36.5252 5.64745 37.0017 6.88235C37.471 8.06077 37.7902 9.40383 37.8852 11.374C37.908 11.8661 37.927 12.275 37.9422 12.6912L37.9536 13.0501C37.9821 13.9603 37.9935 15.0166 37.9973 17.0978L37.9992 18.4779V20.9013C38.0038 22.2507 37.9892 23.6 37.9555 24.949L37.9441 25.3079C37.9289 25.7241 37.9099 26.133 37.8871 26.6251C37.7921 28.5953 37.4691 29.9365 37.0017 31.1168C36.5252 32.3517 35.7776 33.4704 34.8111 34.3949C33.8617 35.3359 32.7127 36.0639 31.4445 36.5279C30.2343 36.9848 28.8549 37.2956 26.8334 37.3881L25.4807 37.4436L25.1121 37.4547C24.1755 37.4806 23.0906 37.4936 20.9532 37.4973L19.5359 37.4991H17.0489C15.6625 37.5039 14.2761 37.4897 12.89 37.4566L12.5214 37.4455C12.0704 37.4288 11.6195 37.4097 11.1687 37.3881C9.14722 37.2956 7.76789 36.9848 6.55575 36.5279C5.28819 36.0636 4.13991 35.3357 3.19102 34.3949C2.22386 33.4706 1.47561 32.3518 0.998531 31.1168C0.529254 29.9383 0.21007 28.5953 0.115075 26.6251L0.0580777 25.3079L0.0485784 24.949C0.0135557 23.6001 -0.00227854 22.2507 0.00108066 20.9013V17.0978C-0.00417808 15.7484 0.00975604 14.3991 0.0428787 13.0501L0.056178 12.6912C0.0713772 12.275 0.0903762 11.8661 0.113175 11.374C0.20817 9.40383 0.527354 8.06262 0.99663 6.88235C1.47483 5.64694 2.22439 4.52816 3.19292 3.60422C4.14126 2.66361 5.28887 1.9357 6.55575 1.47123C7.76789 1.01429 9.14532 0.703495 11.1687 0.610997C11.6741 0.588798 12.0959 0.570298 12.5214 0.555499L12.89 0.544399C14.2754 0.51153 15.6612 0.497346 17.047 0.50185L20.9532 0.5ZM19.0001 9.74978C16.4807 9.74978 14.0645 10.7243 12.2829 12.459C10.5014 14.1936 9.5006 16.5464 9.5006 18.9996C9.5006 21.4527 10.5014 23.8055 12.2829 25.5401C14.0645 27.2748 16.4807 28.2493 19.0001 28.2493C21.5196 28.2493 23.9358 27.2748 25.7173 25.5401C27.4988 23.8055 28.4996 21.4527 28.4996 18.9996C28.4996 16.5464 27.4988 14.1936 25.7173 12.459C23.9358 10.7243 21.5196 9.74978 19.0001 9.74978ZM19.0001 13.4497C19.7486 13.4496 20.4898 13.593 21.1814 13.8718C21.8729 14.1506 22.5013 14.5593 23.0307 15.0746C23.5601 15.5898 23.98 16.2016 24.2666 16.8749C24.5531 17.5482 24.7007 18.2698 24.7008 18.9986C24.7009 19.7274 24.5536 20.4492 24.2673 21.1225C23.981 21.7959 23.5612 22.4078 23.032 22.9232C22.5029 23.4387 21.8746 23.8476 21.1831 24.1266C20.4917 24.4056 19.7505 24.5493 19.002 24.5494C17.4904 24.5494 16.0406 23.9647 14.9717 22.9239C13.9028 21.8831 13.3023 20.4715 13.3023 18.9996C13.3023 17.5276 13.9028 16.116 14.9717 15.0752C16.0406 14.0344 17.4904 13.4497 19.002 13.4497M28.9765 6.97484C28.3467 6.97484 27.7426 7.21847 27.2972 7.65214C26.8518 8.08581 26.6016 8.67399 26.6016 9.28729C26.6016 9.90059 26.8518 10.4888 27.2972 10.9224C27.7426 11.3561 28.3467 11.5997 28.9765 11.5997C29.6064 11.5997 30.2104 11.3561 30.6558 10.9224C31.1012 10.4888 31.3514 9.90059 31.3514 9.28729C31.3514 8.67399 31.1012 8.08581 30.6558 7.65214C30.2104 7.21847 29.6064 6.97484 28.9765 6.97484Z" fill="white"/>
</svg>
