<svg width="37" height="31" viewBox="0 0 37 31" fill="none" xmlns="http://www.w3.org/2000/svg">
<path id="Vector" d="M37 4.02941C35.6381 4.64706 34.1702 5.05294 32.6491 5.24706C34.2055 4.31176 35.4082 2.82941 35.9742 1.04706C34.5062 1.92941 32.8791 2.54706 31.1635 2.9C29.7663 1.38235 27.8031 0.5 25.5746 0.5C21.4183 0.5 18.0225 3.88824 18.0225 8.07059C18.0225 8.67059 18.0932 9.25294 18.217 9.8C11.9207 9.48235 6.31405 6.46471 2.58222 1.89412C1.92782 3.00588 1.55641 4.31176 1.55641 5.68824C1.55641 8.31765 2.88289 10.6471 4.93451 11.9706C3.67878 11.9706 2.51147 11.6176 1.48566 11.0882V11.1412C1.48566 14.8118 4.10325 17.8824 7.56979 18.5706C6.45703 18.8758 5.28831 18.9181 4.15631 18.6941C4.63668 20.1985 5.57748 21.5148 6.84644 22.4581C8.11541 23.4014 9.64874 23.9242 11.2309 23.9529C8.54903 26.0715 5.22459 27.2166 1.80402 27.2C1.20268 27.2 0.601338 27.1647 0 27.0941C3.36042 29.2471 7.35755 30.5 11.6377 30.5C25.5746 30.5 33.2328 18.9588 33.2328 8.95294C33.2328 8.61765 33.2328 8.3 33.2151 7.9647C34.7008 6.90588 35.9742 5.56471 37 4.02941Z" fill="white"/>
</svg>
